HIERARCHY
ROOT Hips
{
    OFFSET 0.000000 0.000000 0.000000
    CHANNELS 6 Xposition Yposition Zposition Zrotation Xrotation Yrotation
        JOINT Chest
        {
            OFFSET -0.000000 31.966684 -0.000000
            CHANNELS 3 Zrotation Xrotation Yrotation
            JOINT Neck
            {
                OFFSET -0.000000 23.973995 0.000000
                CHANNELS 3 Zrotation Xrotation Yrotation
                JOINT Head
                {
                    OFFSET -0.000000 10.633333 0.000000
                    CHANNELS 3 Zrotation Xrotation Yrotation
                    End Site
                    {
                        OFFSET -0.000000 16.433334 0.000000
                    }
                }
            }
            JOINT LeftCollar
            {
                OFFSET -0.000000 23.973995 0.000000
                CHANNELS 3 Zrotation Xrotation Yrotation
                JOINT LeftShoulder
                {
                    OFFSET 19.333332 -0.000000 0.000000
                    CHANNELS 3 Zrotation Xrotation Yrotation
                    JOINT LeftElbow
                    {
                        OFFSET 20.067463 0.000000 0.000000
                        CHANNELS 3 Zrotation Xrotation Yrotation
                        JOINT LeftWrist
                        {
                            OFFSET 23.490957 0.000000 0.000000
                            CHANNELS 3 Zrotation Xrotation Yrotation
                            End Site
                            {
                                OFFSET 0.000000 -14.500000 0.000000
                            }
                        }
                    }
                }
            }
            JOINT RightCollar
            {
                OFFSET -0.000000 23.973995 0.000000
                CHANNELS 3 Zrotation Xrotation Yrotation
                JOINT RightShoulder
                {
                    OFFSET -19.333332 0.000000 0.000000
                    CHANNELS 3 Zrotation Xrotation Yrotation
                    JOINT RightElbow
                    {
                        OFFSET -20.067463 0.000000 0.000000
                        CHANNELS 3 Zrotation Xrotation Yrotation
                        JOINT RightWrist
                        {
                            OFFSET -23.490957 0.000000 0.000000
                            CHANNELS 3 Zrotation Xrotation Yrotation
                            End Site
                            {
                                OFFSET -0.000000 -14.500000 0.000000
                            }
                        }
                    }
                }
            }
        }
    JOINT LeftHip
    {
        OFFSET 11.599999 0.000000 0.000000
        CHANNELS 3 Zrotation Xrotation Yrotation
        JOINT LeftKnee
        {
            OFFSET -0.000000 -35.131119 0.000000
            CHANNELS 3 Zrotation Xrotation Yrotation
            JOINT LeftAnkle
            {
                OFFSET -0.000000 -37.839104 0.000000
                CHANNELS 3 Zrotation Xrotation Yrotation
                End Site
                {
                    OFFSET -0.000000 -4.833333 16.433334
                }
            }
        }
    }
    JOINT RightHip
    {
        OFFSET -11.599999 0.000000 0.000000
        CHANNELS 3 Zrotation Xrotation Yrotation
        JOINT RightKnee
        {
            OFFSET -0.000000 -35.131119 0.000000
            CHANNELS 3 Zrotation Xrotation Yrotation
            JOINT RightAnkle
            {
                OFFSET -0.000000 -37.839104 0.000000
                CHANNELS 3 Zrotation Xrotation Yrotation
                End Site
                {
                    OFFSET -0.000000 -4.833333 16.433334
                }
            }
        }
    }
}
MOTION
Frames:    12
Frame Time:    0.010000
-43.335323    85.143791    -44.353657    1.725719    -4.725230    -57.895924    -4.591553    3.768858    1.736833    18.609293    0.058627    5.774404    -23.738390    2.566694    9.396920    -13.804222    0.752674    -6.395461    -35.301357    44.893276    -29.976511    -7.356079    2.868790    3.007017    -82.029739    -30.528238    -88.768494    15.841433    0.918248    -3.797693    62.796238    20.084406    12.463398    17.549202    3.892855    33.552795    -105.148827    1.031518    50.493954    3.567933    -2.682515    4.940578    -9.283828    21.074829    -4.372743    3.696470    -9.221762    28.123823    -17.557579    2.000648    -8.336760    4.354798    17.323944    -13.964421    4.584818    -5.906263    -18.509806    
-43.173683    85.380730    -44.288494    1.866725    -4.587873    -57.968647    -3.205937    3.345368    1.836142    7.336802    1.269773    10.135431    -17.645712    -5.681784    9.457817    -15.549543    0.157921    3.522155    -34.437458    44.021130    -33.061447    -11.475496    1.768213    -5.667177    -76.563881    -45.852230    -88.574348    13.213326    0.723632    4.734855    62.839088    20.990534    10.353263    18.772829    5.040147    31.535845    -107.161438    -0.831087    50.051769    3.306789    -2.642405    4.553313    -9.046948    20.363832    -3.688383    3.420013    -8.662773    27.692232    -17.346844    1.438710    -9.269875    4.566055    18.678640    -14.333918    3.984030    -5.450974    -17.804728    
-43.020683    85.597267    -44.227528    1.951583    -4.500639    -58.027298    -3.278412    3.067179    1.825637    7.336010    1.626821    10.141151    -17.662693    -6.185240    9.283559    -15.382613    -0.179173    3.888224    -34.204536    44.630123    -32.910984    -14.966998    2.264188    -15.905336    -63.150150    -63.366203    -80.456642    13.140895    0.626692    4.702207    63.314415    20.823330    10.225704    18.970901    5.266601    31.206959    -107.946411    -1.713834    50.238159    3.024980    -2.536529    4.008223    -8.838507    19.652756    -2.906841    3.231890    -8.096629    27.300846    -17.162203    0.913581    -10.174245    4.761928    20.175257    -14.452396    3.786343    -5.099082    -17.073168    
-42.884216    85.790268    -44.163414    1.958553    -4.479039    -58.069035    -3.366712    2.889112    1.802338    7.335423    1.997770    10.145707    -17.731232    -6.194592    9.306715    -15.235242    -0.371889    4.267236    -33.948013    45.087677    -32.840969    -16.473068    3.103348    -23.094759    -42.512943    -73.409851    -63.148914    13.045212    0.570234    4.665463    63.726009    20.676308    10.196450    19.222038    5.377289    30.941769    -108.532867    -2.368042    50.548637    2.718631    -2.331168    3.340946    -8.642037    18.951221    -2.080666    3.111681    -7.558531    26.970303    -16.997786    0.506910    -10.995867    4.939165    21.692682    -14.339208    4.055943    -4.872053    -16.395897    
-42.768986    85.957283    -44.092091    1.874506    -4.529260    -58.086014    -3.473209    2.829387    1.754329    7.362145    2.361136    10.139095    -17.815239    -6.192697    9.319182    -15.095747    -0.486531    4.628198    -33.739105    45.420227    -32.753632    -16.911356    3.792510    -27.863861    -13.750937    -77.670860    -36.699448    12.933854    0.526838    4.595889    64.077263    20.576241    10.251054    19.479029    5.450214    30.731754    -108.915604    -2.750388    50.880032    2.390614    -2.010087    2.563671    -8.454166    18.267422    -1.229090    3.044732    -7.074378    26.710806    -16.841881    0.285315    -11.695308    5.102288    23.109142    -14.041652    4.791017    -4.788570    -15.858758    
-42.677925    86.096016    -44.012268    1.694079    -4.650328    -58.072308    -3.590699    2.899866    1.671492    7.393178    2.695168    10.131604    -17.897057    -6.169460    9.332991    -14.959948    -0.568228    4.983457    -33.611938    45.642967    -32.616703    -16.826973    4.266435    -31.123798    13.330564    -78.103287    -11.335910    12.801817    0.496486    4.504620    64.362984    20.535873    10.392449    19.743549    5.508625    30.544935    -109.132050    -2.867593    51.165413    2.050231    -1.570195    1.688542    -8.277998    17.610937    -0.359202    3.022259    -6.662847    26.523054    -16.679882    0.298317    -12.245518    5.259363    24.307026    -13.635312    5.914011    -4.855906    -15.525135    
-42.612839    86.204201    -43.924694    1.419080    -4.836587    -58.027691    -3.712445    3.104025    1.549960    7.417711    2.985920    10.128261    -17.969568    -6.128183    9.351757    -14.824011    -0.627569    5.337783    -33.571178    45.751141    -32.430599    -16.527452    4.576264    -33.430130    31.203417    -76.964272    5.173167    12.645652    0.512394    4.394970    64.568802    20.546881    10.653091    20.030317    5.563976    30.344883    -109.195267    -2.724404    51.358440    1.710458    -1.018615    0.743366    -8.117176    16.994516    0.516762    3.040320    -6.336323    26.400612    -16.496655    0.576142    -12.630712    5.414926    25.180574    -13.224216    7.278114    -5.059562    -15.406953    
-42.574532    86.279724    -43.831654    1.058524    -5.079380    -57.959068    -3.835386    3.433263    1.394338    7.441726    3.229717    10.126274    -18.038462    -6.077172    9.370827    -14.683852    -0.676896    5.682481    -33.607891    45.758232    -32.207020    -16.130342    4.762604    -35.114845    41.876785    -75.563744    14.718770    12.480574    0.460225    4.260130    64.710884    20.690987    10.938963    20.194283    5.594758    30.398588    -109.020058    -2.178294    51.412712    1.385019    -0.371334    -0.226168    -7.974069    16.433832    1.374588    3.096184    -6.101953    26.334055    -16.278543    1.126831    -12.848373    5.563484    25.647255    -12.928275    8.693805    -5.356482    -15.458343    
-42.562820    86.320732    -43.736855    0.628327    -5.366996    -57.879143    -3.954864    3.868891    1.217259    7.450291    3.425411    10.134481    -18.092651    -6.024761    9.397748    -14.541527    -0.725185    6.029658    -33.706009    45.676506    -31.963993    -15.700461    4.859936    -36.368855    48.320663    -74.352386    20.193050    12.305181    0.419329    4.117038    64.783356    20.896681    11.288262    20.388693    5.647592    30.404285    -108.718994    -1.400415    51.254658    1.087714    0.346378    -1.162349    -7.851155    15.947584    2.177507    3.186199    -5.963312    26.315733    -16.015181    1.934483    -12.910109    5.689546    25.660183    -12.858899    9.972948    -5.683549    -15.599030    
-42.576496    86.325821    -43.645508    0.149491    -5.684363    -57.803928    -4.069556    4.384634    1.036872    7.449165    3.570818    10.152399    -18.133139    -5.972383    9.431620    -14.400727    -0.766169    6.372763    -33.837894    45.515312    -31.723236    -15.288556    4.908112    -37.304276    52.153263    -73.476585    23.164495    12.127145    0.441101    3.964905    64.762970    21.147573    11.740803    20.586391    5.694263    30.424988    -108.264557    -0.398434    50.867893    0.832747    1.100422    -2.004002    -7.752785    15.556769    2.883341    3.306739    -5.918554    26.339905    -15.700820    2.959894    -12.841545    5.772228    25.218050    -13.087768    10.972418    -5.978519    -15.751117    
-42.613026    86.294785    -43.563675    -0.352945    -6.014136    -57.749371    -4.178715    4.950006    0.873634    7.438530    3.663738    10.183377    -18.157223    -5.919833    9.475984    -14.268066    -0.803638    6.712319    -33.976295    45.295868    -31.506838    -14.901903    4.919887    -38.015076    54.149570    -72.982697    24.394400    11.965733    0.410303    3.811919    64.671463    21.512257    12.186091    20.614542    5.710819    30.744646    -107.552513    0.913503    50.233829    0.632321    1.849497    -2.698913    -7.685545    15.281624    3.457303    3.454690    -5.959158    26.400099    -15.337452    4.144518    -12.679251    5.793545    24.365490    -13.628563    11.612807    -6.199816    -15.861964    
-42.668175    86.229424    -43.497181    -0.851004    -6.338871    -57.728817    -4.284531    5.532463    0.747698    7.422422    3.707273    10.229476    -18.166718    -5.871725    9.531984    -14.152658    -0.846073    7.046983    -34.098793    45.042534    -31.325077    -14.549677    4.911885    -38.583477    54.720127    -72.852631    24.287256    11.831124    0.373468    3.667973    64.514183    21.920467    12.628909    20.592716    5.754293    31.087755    -106.687347    2.304729    49.318710    0.493909    2.548849    -3.216044    -7.658525    15.137070    3.883166    3.623911    -6.070593    26.488020    -14.937418    5.416889    -12.467300    5.744458    23.185692    -14.432372    11.875688    -6.335164    -15.908491    
